# xmcd
#
# Track frame offsets:
#	150
#	17887
#	32262
#	50767
#	64562
#	79602
#	97385
#	108907
#	126367
#	145937
#	158752
#	174425
#
# Disc length: 2595 seconds
# Revision: 0
# Processed by: cddbd v1.5.2PL0 Copyright (c) Steve Scherf et al.
# Submitted via: dBpowerAMP V12.0
#
DISCID=9b0a210c
DTITLE=Laura Boosinger - My Carolina Home
DYEAR=1990
DGENRE=Country
TTITLE0=When the Roses Bloom in Dixieland
TTITLE1=Sweet Sunny South
TTITLE2=Grandfather's Clock
TTITLE3=I Will Arise
TTITLE4=Under the Weeping Willow Tree
TTITLE5=What'll We Do With the Baby-O
TTITLE6=Free Little Bird
TTITLE7=Over the Mountain
TTITLE8=Wondrous Love
TTITLE9=Pretty Little Miss Out in the Garden
TTITLE10=Are You Tired of Me, My Darling?
TTITLE11=My Carolina Home/Carolina Moon
EXTD=
EXTT0=
EXTT1=
EXTT2=
EXTT3=
EXTT4=
EXTT5=
EXTT6=
EXTT7=
EXTT8=
EXTT9=
EXTT10=
EXTT11=
PLAYORDER=
